<svg xmlns="http://www.w3.org/2000/svg" width="213.162" height="155.308" viewBox="0 0 213.162 155.308"><defs><style>.a{opacity:0.77;}.b,.f{fill:#1994db;}.b,.c{opacity:0.39;}.d{fill:#9aafc5;}.e{fill:#0f4f85;}.g{fill:#f6b54f;}.h,.j{fill:#fff;}.i{fill:#e2e8f0;opacity:0.81;}.j{opacity:0.55;}</style></defs><g transform="translate(-871 -418.003)"><g transform="translate(871 418.003)"><g class="a" transform="translate(98.146 112.16)"><path class="b" d="M605.733,210.511l-3.852-2.086a15.633,15.633,0,0,0,.408-4.673l4.136-1.129a1.4,1.4,0,0,0,.972-1.793l-1.566-4.866a1.557,1.557,0,0,0-1.875-1.015l-4.137,1.13a17.115,17.115,0,0,0-3.108-3.712l2-3.683a1.477,1.477,0,0,0-.639-1.987l-4.593-2.487a1.476,1.476,0,0,0-2.014.549l-1.994,3.683a17.136,17.136,0,0,0-4.808-.574l-1.313-4.082a1.557,1.557,0,0,0-1.875-1.016l-4.93,1.347a1.4,1.4,0,0,0-.972,1.793l1.314,4.082a15.6,15.6,0,0,0-3.691,2.9l-3.853-2.086a1.476,1.476,0,0,0-2.013.549l-2.379,4.393a1.475,1.475,0,0,0,.639,1.986l3.853,2.088a15.587,15.587,0,0,0-.409,4.672l-4.136,1.13a1.4,1.4,0,0,0-.971,1.793l1.567,4.865a1.556,1.556,0,0,0,1.874,1.016l4.138-1.13a17.136,17.136,0,0,0,3.107,3.712l-2,3.683a1.475,1.475,0,0,0,.639,1.986l4.594,2.488a1.476,1.476,0,0,0,2.013-.549l2-3.683a17.172,17.172,0,0,0,4.807.574l1.314,4.082a1.557,1.557,0,0,0,1.875,1.015l4.93-1.346a1.4,1.4,0,0,0,.97-1.793l-1.313-4.082a15.643,15.643,0,0,0,3.69-2.9l3.853,2.087a1.476,1.476,0,0,0,2.013-.551l2.379-4.393A1.476,1.476,0,0,0,605.733,210.511Zm-25.493,3.616a11.393,11.393,0,1,1,15.886-4.339A11.65,11.65,0,0,1,580.24,214.127Z" transform="translate(-563.851 -182.716)"/></g><g class="c" transform="translate(106.513 37.403)"><path class="d" d="M640.314,158.943l-6.26-3.391a27.141,27.141,0,0,0,.817-7.875l6.827-2.03a2.45,2.45,0,0,0,1.649-3.047l-2.42-8.137a2.448,2.448,0,0,0-3.046-1.649l-6.827,2.03a27.227,27.227,0,0,0-4.987-6.15l3.391-6.259a2.451,2.451,0,0,0-.989-3.321l-7.464-4.043a2.45,2.45,0,0,0-3.321.988l-3.39,6.261a27.116,27.116,0,0,0-7.876-.816l-2.03-6.828a2.449,2.449,0,0,0-3.047-1.649l-8.137,2.42a2.45,2.45,0,0,0-1.651,3.047l2.031,6.826a27.2,27.2,0,0,0-6.15,4.987l-6.259-3.39a2.449,2.449,0,0,0-3.322.988l-4.043,7.464a2.45,2.45,0,0,0,.988,3.321l6.26,3.39a27.121,27.121,0,0,0-.816,7.876l-6.827,2.03a2.451,2.451,0,0,0-1.651,3.047l2.42,8.137a2.45,2.45,0,0,0,3.047,1.651l6.827-2.031a27.173,27.173,0,0,0,4.986,6.15l-3.391,6.259a2.451,2.451,0,0,0,.989,3.321l7.464,4.043a2.45,2.45,0,0,0,3.321-.988l3.39-6.261a27.158,27.158,0,0,0,7.876.817l2.03,6.826a2.45,2.45,0,0,0,3.047,1.651l8.137-2.419a2.452,2.452,0,0,0,1.651-3.048l-2.03-6.826a27.224,27.224,0,0,0,6.149-4.987l6.259,3.391a2.451,2.451,0,0,0,3.321-.989l4.043-7.464A2.45,2.45,0,0,0,640.314,158.943Zm-41.97,6.879a19.341,19.341,0,1,1,26.218-7.8A19.342,19.342,0,0,1,598.345,165.821Z" transform="translate(-571.663 -112.92)"/></g><rect class="e" width="28.151" height="16.277" transform="translate(53.286 6.104)"/><rect class="f" width="37.199" height="11.19" rx="1.981" transform="translate(48.761)"/><ellipse class="g" cx="67.361" cy="68.158" rx="67.361" ry="68.158" transform="translate(0 18.992)"/><ellipse class="h" cx="51.778" cy="52.39" rx="51.778" ry="52.39" transform="translate(15.583 34.76)"/><path class="i" d="M584.429,182.288a51.526,51.526,0,0,1-92.461,1.369c-1.875-3.62,20.942-24,44.883-24.312C560.914,159.035,586.1,178.818,584.429,182.288Z" transform="translate(-470.823 -72.218)"/><path class="j" d="M565.9,192.052a32.17,32.17,0,0,1-57.726.855C507,190.645,521.25,177.92,536.2,177.728,551.22,177.534,566.945,189.885,565.9,192.052Z" transform="translate(-469.668 -70.911)"/><rect class="g" width="5.022" height="35.572" rx="0.9" transform="translate(64.85 47.812)"/><ellipse class="e" cx="7.534" cy="7.623" rx="7.534" ry="7.623" transform="translate(59.828 79.527)"/></g><path d="M6.188,11.676v21.23a.844.844,0,0,0,.844.844h3.938a.844.844,0,0,0,.844-.844V11.676h3.239A1.688,1.688,0,0,0,16.244,8.8L10.193,2.744a1.687,1.687,0,0,0-2.386,0L1.756,8.8a1.688,1.688,0,0,0,1.193,2.881Z" transform="translate(1067.42 477.657)"/></g></svg>